solid 0
facet normal 0 0 -0.660645
outer loop
vertex 0 6.4 2.75283e-015
vertex 0.103226 6.29677 2.75283e-015
vertex 0 0 2.75283e-015
endloop
endfacet 
facet normal 0 0 -0.660648
outer loop
vertex 0.103226 6.29677 2.75283e-015
vertex 0 6.4 2.75283e-015
vertex 6.4 6.4 2.75283e-015
endloop
endfacet 
facet normal 0 0 -0.639336
outer loop
vertex 0.103226 6.29677 2.75283e-015
vertex 6.4 6.4 2.75283e-015
vertex 6.29677 6.29677 2.75283e-015
endloop
endfacet 
facet normal 0 0 -0.639336
outer loop
vertex 6.29677 6.29677 2.75283e-015
vertex 6.4 6.4 2.75283e-015
vertex 6.29677 0.103226 2.75283e-015
endloop
endfacet 
facet normal 0 0 -0.660645
outer loop
vertex 0 0 2.75283e-015
vertex 0.103226 0.103226 2.75283e-015
vertex 6.4 0 2.75283e-015
endloop
endfacet 
facet normal -0 0 -0.639334
outer loop
vertex 0.103226 0.103226 2.75283e-015
vertex 0 0 2.75283e-015
vertex 0.103226 6.29677 2.75283e-015
endloop
endfacet 
facet normal 0 0 -0.639334
outer loop
vertex 6.4 0 2.75283e-015
vertex 0.103226 0.103226 2.75283e-015
vertex 6.29677 0.103226 2.75283e-015
endloop
endfacet 
facet normal 0 0 -0.660648
outer loop
vertex 6.4 0 2.75283e-015
vertex 6.29677 0.103226 2.75283e-015
vertex 6.4 6.4 2.75283e-015
endloop
endfacet 
facet normal 0 0 0.660645
outer loop
vertex 0 0 0.309677
vertex 0.103226 0.103226 0.309677
vertex 0 6.4 0.309677
endloop
endfacet 
facet normal 0 0 0.660645
outer loop
vertex 0.103226 0.103226 0.309677
vertex 0 0 0.309677
vertex 6.4 0 0.309677
endloop
endfacet 
facet normal -0 0 0.639334
outer loop
vertex 0.103226 0.103226 0.309677
vertex 6.4 0 0.309677
vertex 6.29677 0.103226 0.309677
endloop
endfacet 
facet normal -0 0 0.639336
outer loop
vertex 6.29677 0.103226 0.309677
vertex 6.4 0 0.309677
vertex 6.29677 6.29677 0.309677
endloop
endfacet 
facet normal -0 0 0.660648
outer loop
vertex 0 6.4 0.309677
vertex 0.103226 6.29677 0.309677
vertex 6.4 6.4 0.309677
endloop
endfacet 
facet normal 0 0 0.639334
outer loop
vertex 0.103226 6.29677 0.309677
vertex 0 6.4 0.309677
vertex 0.103226 0.103226 0.309677
endloop
endfacet 
facet normal 0 0 0.639336
outer loop
vertex 6.4 6.4 0.309677
vertex 0.103226 6.29677 0.309677
vertex 6.29677 6.29677 0.309677
endloop
endfacet 
facet normal 0 0 0.660648
outer loop
vertex 6.4 6.4 0.309677
vertex 6.29677 6.29677 0.309677
vertex 6.4 0 0.309677
endloop
endfacet 
facet normal 0 1.98194 0
outer loop
vertex 0 6.4 0.309677
vertex 6.4 6.4 2.75283e-015
vertex 0 6.4 2.75283e-015
endloop
endfacet 
facet normal 0 1.98194 -0
outer loop
vertex 6.4 6.4 2.75283e-015
vertex 0 6.4 0.309677
vertex 6.4 6.4 0.309677
endloop
endfacet 
facet normal -1.98194 -0 0
outer loop
vertex 0 6.4 0.309677
vertex 0 0 2.75283e-015
vertex 0 0 0.309677
endloop
endfacet 
facet normal -1.98194 0 0
outer loop
vertex 0 0 2.75283e-015
vertex 0 6.4 0.309677
vertex 0 6.4 2.75283e-015
endloop
endfacet 
facet normal 1.98194 0 0
outer loop
vertex 6.4 6.4 2.75283e-015
vertex 6.4 0 0.309677
vertex 6.4 0 2.75283e-015
endloop
endfacet 
facet normal 1.98194 -0 0
outer loop
vertex 6.4 0 0.309677
vertex 6.4 6.4 2.75283e-015
vertex 6.4 6.4 0.309677
endloop
endfacet 
facet normal 0 -1.98194 -0
outer loop
vertex 6.4 0 0.309677
vertex 0 0 2.75283e-015
vertex 6.4 0 2.75283e-015
endloop
endfacet 
facet normal 0 -1.98194 0
outer loop
vertex 0 0 2.75283e-015
vertex 6.4 0 0.309677
vertex 0 0 0.309677
endloop
endfacet 
facet normal -1.918 -0 0
outer loop
vertex 6.29677 6.29677 0.309677
vertex 6.29677 0.103226 2.75283e-015
vertex 6.29677 0.103226 0.309677
endloop
endfacet 
facet normal -1.918 0 0
outer loop
vertex 6.29677 0.103226 2.75283e-015
vertex 6.29677 6.29677 0.309677
vertex 6.29677 6.29677 2.75283e-015
endloop
endfacet 
facet normal 0 1.918 0
outer loop
vertex 0.103226 0.103226 0.309677
vertex 6.29677 0.103226 2.75283e-015
vertex 0.103226 0.103226 2.75283e-015
endloop
endfacet 
facet normal 0 1.918 -0
outer loop
vertex 6.29677 0.103226 2.75283e-015
vertex 0.103226 0.103226 0.309677
vertex 6.29677 0.103226 0.309677
endloop
endfacet 
facet normal 0 -1.918 -0
outer loop
vertex 6.29677 6.29677 0.309677
vertex 0.103226 6.29677 2.75283e-015
vertex 6.29677 6.29677 2.75283e-015
endloop
endfacet 
facet normal 0 -1.918 0
outer loop
vertex 0.103226 6.29677 2.75283e-015
vertex 6.29677 6.29677 0.309677
vertex 0.103226 6.29677 0.309677
endloop
endfacet 
facet normal 1.918 0 0
outer loop
vertex 0.103226 6.29677 2.75283e-015
vertex 0.103226 0.103226 0.309677
vertex 0.103226 0.103226 2.75283e-015
endloop
endfacet 
facet normal 1.918 -0 0
outer loop
vertex 0.103226 0.103226 0.309677
vertex 0.103226 6.29677 2.75283e-015
vertex 0.103226 6.29677 0.309677
endloop
endfacet 
facet normal -5.06186e-017 4.4032e-017 -0.070705
outer loop
vertex 2.88852 3.19287 2.79727e-015
vertex 2.99927 3.03882 2.62205e-015
vertex 2.76816 2.72188 2.59013e-015
endloop
endfacet 
facet normal -4.14935e-018 1.56834e-017 -0.0164106
outer loop
vertex 2.99927 3.03882 2.62205e-015
vertex 2.88852 3.19287 2.79727e-015
vertex 3.07067 3.08768 2.65069e-015
endloop
endfacet 
facet normal 1.563e-018 -9.02401e-019 -0.00235701
outer loop
vertex 2.99927 3.03882 2.62205e-015
vertex 3.07067 3.08768 2.65069e-015
vertex 3.02263 3.02179 2.64405e-015
endloop
endfacet 
facet normal 5.24553e-018 -3.02852e-018 -0.00791032
outer loop
vertex 3.46447 2.86034 2.99886e-015
vertex 3.43715 2.71951 3.03467e-015
vertex 3.38794 2.7554 2.98829e-015
endloop
endfacet 
facet normal 0 0 -10.0178
outer loop
vertex 0.103226 6.29677 2.75283e-015
vertex 1.72068 2.0749 2.75283e-015
vertex 0.103226 0.103226 2.75283e-015
endloop
endfacet 
facet normal 1.87605e-016 7.1874e-017 -8.47869
outer loop
vertex 1.72068 2.0749 2.75283e-015
vertex 0.103226 6.29677 2.75283e-015
vertex 3.13626 3.62197 2.79727e-015
endloop
endfacet 
facet normal 0 -2.75219e-016 -16.5665
outer loop
vertex 3.13626 3.62197 2.79727e-015
vertex 0.103226 6.29677 2.75283e-015
vertex 6.29677 6.29677 2.75283e-015
endloop
endfacet 
facet normal 0 0 -0.298529
outer loop
vertex 0.103226 0.103226 2.75283e-015
vertex 1.72068 2.0749 2.75283e-015
vertex 1.36094 1.45181 2.75283e-015
endloop
endfacet 
facet normal 1.90677e-017 -1.10088e-017 -0.224154
outer loop
vertex 1.72068 2.0749 2.75283e-015
vertex 3.13626 3.62197 2.79727e-015
vertex 2.88852 3.19287 2.79727e-015
endloop
endfacet 
facet normal -2.10646e-016 2.36557e-016 -0.415473
outer loop
vertex 1.72068 2.0749 2.75283e-015
vertex 2.88852 3.19287 2.79727e-015
vertex 2.76816 2.72188 2.59013e-015
endloop
endfacet 
facet normal -9.05264e-017 -1.56796e-016 -1.20628
outer loop
vertex 1.72068 2.0749 2.75283e-015
vertex 2.76816 2.72188 2.59013e-015
vertex 2.68437 1.51852 2.75283e-015
endloop
endfacet 
facet normal -2.3623e-017 -4.09162e-017 -4.14308
outer loop
vertex 3.13626 3.62197 2.79727e-015
vertex 6.29677 6.29677 2.75283e-015
vertex 4.05704 3.09035 2.79727e-015
endloop
endfacet 
facet normal 0 0 -4.90652
outer loop
vertex 0.103226 0.103226 2.75283e-015
vertex 2.32463 0.895425 2.75283e-015
vertex 6.29677 0.103226 2.75283e-015
endloop
endfacet 
facet normal -0 0 -1.9994
outer loop
vertex 2.32463 0.895425 2.75283e-015
vertex 0.103226 0.103226 2.75283e-015
vertex 1.36094 1.45181 2.75283e-015
endloop
endfacet 
facet normal 0 0 -2.75999
outer loop
vertex 6.29677 0.103226 2.75283e-015
vertex 2.32463 0.895425 2.75283e-015
vertex 2.68437 1.51852 2.75283e-015
endloop
endfacet 
facet normal -2.30273e-016 -5.87752e-016 -4.4656
outer loop
vertex 6.29677 0.103226 2.75283e-015
vertex 2.68437 1.51852 2.75283e-015
vertex 2.76816 2.72188 2.59013e-015
endloop
endfacet 
facet normal 1.02855e-015 1.38473e-015 -0.0199407
outer loop
vertex 6.29677 0.103226 2.75283e-015
vertex 2.76816 2.72188 2.59013e-015
vertex 3.20603 2.40257 3.00275e-015
endloop
endfacet 
facet normal -5.81898e-018 1.56407e-016 -1.511
outer loop
vertex 6.29677 0.103226 2.75283e-015
vertex 3.20603 2.40257 3.00275e-015
vertex 3.43715 2.71951 3.03467e-015
endloop
endfacet 
facet normal -1.33359e-016 -9.46819e-017 -0.474185
outer loop
vertex 6.29677 0.103226 2.75283e-015
vertex 3.43715 2.71951 3.03467e-015
vertex 3.46447 2.86034 2.99886e-015
endloop
endfacet 
facet normal -5.06833e-016 -4.86133e-016 -0.386861
outer loop
vertex 6.29677 0.103226 2.75283e-015
vertex 3.46447 2.86034 2.99886e-015
vertex 3.8093 2.66125 2.79727e-015
endloop
endfacet 
facet normal -1.90677e-017 1.10088e-017 -1.70111
outer loop
vertex 6.29677 0.103226 2.75283e-015
vertex 3.8093 2.66125 2.79727e-015
vertex 4.05704 3.09035 2.79727e-015
endloop
endfacet 
facet normal -2.75219e-016 0 -13.8719
outer loop
vertex 6.29677 0.103226 2.75283e-015
vertex 4.05704 3.09035 2.79727e-015
vertex 6.29677 6.29677 2.75283e-015
endloop
endfacet 
facet normal 2.75219e-016 0 13.8719
outer loop
vertex 6.29677 6.29677 2.75283e-015
vertex 4.05704 3.09035 2.79727e-015
vertex 6.29677 0.103226 2.75283e-015
endloop
endfacet 
facet normal 1.90677e-017 -1.10088e-017 1.70111
outer loop
vertex 4.05704 3.09035 2.79727e-015
vertex 3.8093 2.66125 2.79727e-015
vertex 6.29677 0.103226 2.75283e-015
endloop
endfacet 
facet normal 5.06833e-016 4.86133e-016 0.386861
outer loop
vertex 3.8093 2.66125 2.79727e-015
vertex 3.46447 2.86034 2.99886e-015
vertex 6.29677 0.103226 2.75283e-015
endloop
endfacet 
facet normal 1.33359e-016 9.46819e-017 0.474185
outer loop
vertex 3.46447 2.86034 2.99886e-015
vertex 3.43715 2.71951 3.03467e-015
vertex 6.29677 0.103226 2.75283e-015
endloop
endfacet 
facet normal 5.81898e-018 -1.56407e-016 1.511
outer loop
vertex 3.43715 2.71951 3.03467e-015
vertex 3.20603 2.40257 3.00275e-015
vertex 6.29677 0.103226 2.75283e-015
endloop
endfacet 
facet normal -1.02855e-015 -1.38473e-015 0.0199407
outer loop
vertex 3.20603 2.40257 3.00275e-015
vertex 2.76816 2.72188 2.59013e-015
vertex 6.29677 0.103226 2.75283e-015
endloop
endfacet 
facet normal 2.30273e-016 5.87752e-016 4.4656
outer loop
vertex 2.76816 2.72188 2.59013e-015
vertex 2.68437 1.51852 2.75283e-015
vertex 6.29677 0.103226 2.75283e-015
endloop
endfacet 
facet normal 0 0 2.75999
outer loop
vertex 2.68437 1.51852 2.75283e-015
vertex 2.32463 0.895425 2.75283e-015
vertex 6.29677 0.103226 2.75283e-015
endloop
endfacet 
facet normal 0 0 1.9994
outer loop
vertex 1.36094 1.45181 2.75283e-015
vertex 0.103226 0.103226 2.75283e-015
vertex 2.32463 0.895425 2.75283e-015
endloop
endfacet 
facet normal 0 0 4.90652
outer loop
vertex 6.29677 0.103226 2.75283e-015
vertex 2.32463 0.895425 2.75283e-015
vertex 0.103226 0.103226 2.75283e-015
endloop
endfacet 
facet normal 2.3623e-017 4.09162e-017 4.14308
outer loop
vertex 4.05704 3.09035 2.79727e-015
vertex 6.29677 6.29677 2.75283e-015
vertex 3.13626 3.62197 2.79727e-015
endloop
endfacet 
facet normal 9.05264e-017 1.56796e-016 1.20628
outer loop
vertex 2.68437 1.51852 2.75283e-015
vertex 2.76816 2.72188 2.59013e-015
vertex 1.72068 2.0749 2.75283e-015
endloop
endfacet 
facet normal 2.10646e-016 -2.36557e-016 0.415473
outer loop
vertex 2.76816 2.72188 2.59013e-015
vertex 2.88852 3.19287 2.79727e-015
vertex 1.72068 2.0749 2.75283e-015
endloop
endfacet 
facet normal -1.90677e-017 1.10088e-017 0.224154
outer loop
vertex 2.88852 3.19287 2.79727e-015
vertex 3.13626 3.62197 2.79727e-015
vertex 1.72068 2.0749 2.75283e-015
endloop
endfacet 
facet normal 0 -0 0.298529
outer loop
vertex 1.36094 1.45181 2.75283e-015
vertex 1.72068 2.0749 2.75283e-015
vertex 0.103226 0.103226 2.75283e-015
endloop
endfacet 
facet normal 0 2.75219e-016 16.5665
outer loop
vertex 6.29677 6.29677 2.75283e-015
vertex 0.103226 6.29677 2.75283e-015
vertex 3.13626 3.62197 2.79727e-015
endloop
endfacet 
facet normal -1.87605e-016 -7.1874e-017 8.47869
outer loop
vertex 3.13626 3.62197 2.79727e-015
vertex 0.103226 6.29677 2.75283e-015
vertex 1.72068 2.0749 2.75283e-015
endloop
endfacet 
facet normal 0 0 10.0178
outer loop
vertex 0.103226 0.103226 2.75283e-015
vertex 1.72068 2.0749 2.75283e-015
vertex 0.103226 6.29677 2.75283e-015
endloop
endfacet 
facet normal -5.24553e-018 3.02852e-018 0.00791032
outer loop
vertex 3.38794 2.7554 2.98829e-015
vertex 3.43715 2.71951 3.03467e-015
vertex 3.46447 2.86034 2.99886e-015
endloop
endfacet 
facet normal -1.563e-018 9.02401e-019 0.00235701
outer loop
vertex 3.02263 3.02179 2.64405e-015
vertex 3.07067 3.08768 2.65069e-015
vertex 2.99927 3.03882 2.62205e-015
endloop
endfacet 
facet normal 4.14935e-018 -1.56834e-017 0.0164106
outer loop
vertex 3.07067 3.08768 2.65069e-015
vertex 2.88852 3.19287 2.79727e-015
vertex 2.99927 3.03882 2.62205e-015
endloop
endfacet 
facet normal 5.06186e-017 -4.4032e-017 0.070705
outer loop
vertex 2.76816 2.72188 2.59013e-015
vertex 2.99927 3.03882 2.62205e-015
vertex 2.88852 3.19287 2.79727e-015
endloop
endfacet 
endsolid 
